# xmcd
#
# Track frame offsets:
#	150
#	16830
#	38816
#	54506
#	71672
#	93826
#	107836
#	124667
#	142273
#	159008
#	174390
#	190043
#	205254
#	219274
#	231983
#	243019
#	258821
#	271803
#	286939
#	304769
#	322309
#
# Disc length: 4498 seconds
#
# Revision: 0
# Processed by: cddbd v1.5.2PL0 Copyright (c) Steve Scherf et al.
# Submitted via: EasyCDDAExtractor 11.5.0.1
#
DISCID=21119015
DTITLE=Various Artist - NCT 126
DYEAR=2009
DGENRE=Country
TTITLE0=Carrie Underwood - Cowboy Casanova
TTITLE1=Rascal Flatts - Why
TTITLE2=Gloriana - How Far Do You Wanna Go
TTITLE3=Tim McGraw - Southern Voice
TTITLE4=Taylor Swift - Fifteen
TTITLE5=Lynyrd Skynyrd - Simple Life
TTITLE6=Billy Currington - That's How Country Boys Roll
TTITLE7=Bomshel - 19 And Crazy
TTITLE8=Jimmy Wayne ft. Daryl Hall and John Oates - Sara Smile
TTITLE9=Ash Bowers - Stuck
TTITLE10=Darius Rucker - History In The Making
TTITLE11=Cross Canadian Ragweed - Kick In The Head
TTITLE12=Hank Williams Jr. and The Grascals - All The Roads
TTITLE13=Ben Gregg - Radio Waves
TTITLE14=Larry Gatlin and The Gatlin Brothers - Johnny Cash Is Dead (And His Hou
TTITLE14=se Burned Down)
TTITLE15=Lee Greenwood - Why Lie
TTITLE16=Krista Marie - Tomboy
TTITLE17=Ronnie McDowell and Bill Medley - Lost In Dirty Dancing
TTITLE18=Jason Aldean - The Truth
TTITLE19=Richie Fields - Losing You
TTITLE20=The McClymonts - My Life Again
EXTD=
EXTT0=
EXTT1=
EXTT2=
EXTT3=
EXTT4=
EXTT5=
EXTT6=
EXTT7=
EXTT8=
EXTT9=
EXTT10=
EXTT11=
EXTT12=
EXTT13=
EXTT14=
EXTT15=
EXTT16=
EXTT17=
EXTT18=
EXTT19=
EXTT20=
PLAYORDER=
